<svg xmlns="http://www.w3.org/2000/svg" width="48" height="48" viewBox="0 0 48 48">
  <defs>
    <style>
      .cls-1 {
        fill: #ce091a;
      }
    </style>
  </defs>
  <path id="Icon_ionic-ios-contacts" data-name="Icon ionic-ios-contacts" class="cls-1" d="M28.5,4.5a24,24,0,1,0,24,24A24,24,0,0,0,28.5,4.5ZM45.035,34.95c-.935-.3-2.735-.392-3.4-1.2-.335-.4-.115-1.915-.115-1.915,2.908-.162,3.577-.7,3.577-.7.45-.265.242-.312.012-.7-1.258-2.112-.692-4.788-.75-7.108-.046-1.927-.554-4.038-2.308-5.123a7.351,7.351,0,0,0-3.623-.8,8.1,8.1,0,0,0-2.919.473c-4.892,1.962-2.008,8.446-3.681,12.162-.288.623-.7.842.023,1.212a8.924,8.924,0,0,0,3.335.727s.035,1.454,0,1.6c-.127.565-1.362.958-1.823,1.085a15.2,15.2,0,0,0-1.892.658.459.459,0,0,0,.092.877,8.92,8.92,0,0,1,1.327.335,12.545,12.545,0,0,1,5.308,2.885A7.873,7.873,0,0,1,40.5,44.562a1.432,1.432,0,0,1-.635,1.327l-.658.415a.329.329,0,0,1-.5-.277h0A7.862,7.862,0,0,0,33.427,38.5c-1.558-.542-3.242-.577-4.8-1.119-.473-.162-1.408-.358-1.6-.9a6.541,6.541,0,0,1-.219-1.708q-.035-.658-.035-1.315c0-.288.738-.9.9-1.165a8.772,8.772,0,0,0,.8-3.612c1,.277,1.131-1.581,1.3-2.146.127-.392.577-2.412-.3-2.723a4.853,4.853,0,0,0,.485-1.7,10.194,10.194,0,0,0-.127-4.535,7.145,7.145,0,0,0-6.842-4.777,7.336,7.336,0,0,0-7.327,4.362,9.524,9.524,0,0,0-.323,4.558,5.71,5.71,0,0,0,.542,2.088c-.738.323-.519,2.042-.392,2.458.185.588.346,2.7,1.4,2.412a16.506,16.506,0,0,0,.45,2.8,4.194,4.194,0,0,0,.946,1.6c.208.231.312.254.3.554a11.521,11.521,0,0,1-.219,2.746c-.231.877-2.158,1.246-2.931,1.408a17.007,17.007,0,0,0-4.777,1.327A20.779,20.779,0,0,1,28.3,7.731,20.85,20.85,0,0,1,43.05,13.673,20.82,20.82,0,0,1,47.608,36.7,5.452,5.452,0,0,0,45.035,34.95Z" transform="translate(-4.5 -4.5)"/>
</svg>
