<svg xmlns="http://www.w3.org/2000/svg" width="22" height="22" viewBox="0 0 22 22">
  <defs>
    <style>
      .cls-1 {
        fill: #f60;
      }
    </style>
  </defs>
  <path id="Icon_ionic-ios-contacts" data-name="Icon ionic-ios-contacts" class="cls-1" d="M15.5,4.5a11,11,0,1,0,11,11A11,11,0,0,0,15.5,4.5Zm7.578,13.956c-.428-.137-1.253-.18-1.56-.55-.153-.185-.053-.878-.053-.878a3.337,3.337,0,0,0,1.639-.323c.206-.122.111-.143.005-.323-.576-.968-.317-2.195-.344-3.258a2.7,2.7,0,0,0-1.058-2.348,3.369,3.369,0,0,0-1.661-.365,3.713,3.713,0,0,0-1.338.217c-2.242.9-.92,3.871-1.687,5.574-.132.286-.323.386.011.555a4.09,4.09,0,0,0,1.528.333s.016.666,0,.735c-.058.259-.624.439-.836.5a6.965,6.965,0,0,0-.867.3.21.21,0,0,0,.042.4,4.088,4.088,0,0,1,.608.153A5.75,5.75,0,0,1,19.942,20.5,3.609,3.609,0,0,1,21,22.862a.656.656,0,0,1-.291.608l-.3.19a.151.151,0,0,1-.227-.127h0a3.6,3.6,0,0,0-2.422-3.448c-.714-.249-1.486-.264-2.2-.513-.217-.074-.645-.164-.735-.413a3,3,0,0,1-.1-.783q-.016-.3-.016-.6c0-.132.338-.413.412-.534a4.021,4.021,0,0,0,.365-1.655c.46.127.518-.725.6-.984.058-.18.264-1.105-.137-1.248a2.224,2.224,0,0,0,.222-.777,4.672,4.672,0,0,0-.058-2.078,3.275,3.275,0,0,0-3.136-2.189,3.362,3.362,0,0,0-3.358,2A4.365,4.365,0,0,0,9.466,12.4a2.617,2.617,0,0,0,.249.957c-.338.148-.238.936-.18,1.126.085.27.159,1.237.64,1.105a7.565,7.565,0,0,0,.206,1.285,1.922,1.922,0,0,0,.434.735c.1.106.143.116.138.254a5.28,5.28,0,0,1-.1,1.259c-.106.4-.989.571-1.343.645a7.8,7.8,0,0,0-2.189.608A9.524,9.524,0,0,1,15.41,5.981,9.556,9.556,0,0,1,22.169,8.7,9.542,9.542,0,0,1,24.258,19.26,2.5,2.5,0,0,0,23.078,18.456Z" transform="translate(-4.5 -4.5)"/>
</svg>
