<svg xmlns="http://www.w3.org/2000/svg" width="35" height="35" viewBox="0 0 35 35">
  <defs>
    <style>
      .cls-1 {
        fill: #fff;
      }
    </style>
  </defs>
  <g id="Icon_ionic-ios-help-circle-outline" data-name="Icon ionic-ios-help-circle-outline" transform="translate(-3.375 -3.375)">
    <path id="Path_53" data-name="Path 53" class="cls-1" d="M20.875,5.731a15.138,15.138,0,1,1-10.71,4.434,15.044,15.044,0,0,1,10.71-4.434m0-2.356a17.5,17.5,0,1,0,17.5,17.5,17.5,17.5,0,0,0-17.5-17.5Z"/>
    <path id="Path_54" data-name="Path 54" class="cls-1" d="M20.071,11.25c3.809,0,6.429,2.112,6.429,5.149a4.968,4.968,0,0,1-2.854,4.509c-1.767,1.026-2.366,1.777-2.366,3.077v.8H17.755l-.03-.873a4.228,4.228,0,0,1,2.4-4.469c1.716-1.026,2.438-1.676,2.438-2.935s-1.219-2.184-2.732-2.184a2.569,2.569,0,0,0-2.722,2.5H13.5C13.571,13.555,15.988,11.25,20.071,11.25ZM17.4,28.658a2.18,2.18,0,1,1,2.173,2.092A2.127,2.127,0,0,1,17.4,28.658Z" transform="translate(0.875 -0.125)"/>
  </g>
</svg>
