<svg xmlns="http://www.w3.org/2000/svg" width="48" height="48" viewBox="0 0 48 48">
  <defs>
    <style>
      .cls-1 {
        fill: #ce091a;
      }
    </style>
  </defs>
  <path id="Icon_map-compass" data-name="Icon map-compass" class="cls-1" d="M24.96,48.96a24,24,0,1,1,24-24A24.027,24.027,0,0,1,24.96,48.96Zm0-44a20,20,0,1,0,20,20,20.023,20.023,0,0,0-20-20ZM25,8.21S17.96,20.281,17.96,23.96v2c0,3.678,7.066,16,7.066,16S31.96,29.894,31.96,26.216V23.954C31.96,20.275,25,8.21,25,8.21ZM24.96,28.96a4,4,0,1,1,4-4,4,4,0,0,1-4,4Z" transform="translate(-0.96 -0.96)"/>
</svg>
